<svg width="57" height="53" viewBox="0 0 57 53" fill="none" xmlns="http://www.w3.org/2000/svg">
<g clip-path="url(#clip0_507_51)">
<rect width="57" height="53" rx="10" fill="white"/>
<rect width="57" height="53" rx="10" fill="white"/>
<path d="M17.05 40.6C15.2167 40.6 13.7333 40.2667 12.6 39.6C11.5 38.9333 10.6833 38.0333 10.15 36.9C9.65 35.7667 9.4 34.5333 9.4 33.2C9.4 32.4333 9.46667 31.6667 9.6 30.9C9.76667 30.1 9.96667 29.2833 10.2 28.45L17.25 31.05C17.15 31.3167 17.0667 31.6167 17 31.95C16.9667 32.2833 16.95 32.6 16.95 32.9C16.95 33.4333 17.05 33.9833 17.25 34.55C17.4833 35.0833 17.8667 35.35 18.4 35.35C18.7 35.35 19.0333 35.2833 19.4 35.15C19.7667 34.9833 20.15 34.7667 20.55 34.5C20.9833 34.2333 21.4167 33.95 21.85 33.65V36.9C21.3167 37.3 20.7 37.8 20 38.4C19.3 38.9667 18.6667 39.4833 18.1 39.95C17.5333 40.3833 17.1833 40.6 17.05 40.6ZM10.2 28.45L21.35 27.2V30.4L16.65 31.55L10.2 28.45ZM10.75 21.6L12.1 16.65C13.1 16.55 14.2 16.4833 15.4 16.45C16.6 16.3833 17.7833 16.35 18.95 16.35C20.1167 16.35 21.1333 16.4333 22 16.6C22.5 16.7 23.1167 17.05 23.85 17.65C24.6167 18.25 25.3667 18.9667 26.1 19.8C26.8667 20.6333 27.5 21.4667 28 22.3C28.5 23.1 28.75 23.75 28.75 24.25V35.65L30.85 36.4V39.55C30.0167 39.6833 29.05 39.8333 27.95 40C26.85 40.1667 25.85 40.3 24.95 40.4C24.05 40.5333 23.4667 40.6 23.2 40.6C23.1 40.6 22.8833 40.45 22.55 40.15C22.25 39.8833 21.95 39.5833 21.65 39.25C21.3833 38.9167 21.25 38.6833 21.25 38.55V37.2L20.95 36.85V25.2C20.95 24.2667 20.8167 23.6333 20.55 23.3C20.3167 22.9333 19.7667 22.7333 18.9 22.7C18.1667 22.6333 17.35 22.6 16.45 22.6C15.5833 22.6 14.7167 22.6167 13.85 22.65C12.9833 22.6833 12.2167 22.7167 11.55 22.75L10.75 21.6Z" fill="#FCB900"/>
<path d="M35.6 18.8C35.4933 19.68 35.3867 20.56 35.28 21.44C35.2 22.2933 35.1333 23.2133 35.08 24.2C35.0267 25.16 35 26.2933 35 27.6C35 29.1733 35.0667 30.4533 35.2 31.44C35.3333 32.4 35.52 33.1333 35.76 33.64C36 34.1467 36.2933 34.5333 36.64 34.8C36.9867 35.04 37.36 35.2267 37.76 35.36C38.3467 35.5733 39.1333 35.76 40.12 35.92C41.1333 36.0533 42.04 36.1333 42.84 36.16C42.8933 35.8667 42.9333 35.5333 42.96 35.16C42.9867 34.7867 43.0133 34.3867 43.04 33.96C43.0667 33.5333 43.08 33.12 43.08 32.72C43.1067 32.32 43.12 31.9867 43.12 31.72L40.4 31.08L41.12 26.8C41.8667 26.8267 42.7067 26.92 43.64 27.08C44.5733 27.24 45.4267 27.4267 46.2 27.64C47 27.8533 47.52 28.1067 47.76 28.4C47.8133 28.8533 47.84 29.4 47.84 30.04C47.84 30.68 47.8267 31.3467 47.8 32.04C47.8 32.7333 47.7867 33.4 47.76 34.04C47.7333 34.68 47.6933 35.2533 47.64 35.76C47.6133 36.24 47.5733 36.5733 47.52 36.76C47.28 36.9733 46.8933 37.24 46.36 37.56C45.8533 37.88 45.2533 38.2133 44.56 38.56C43.8933 38.88 43.2267 39.1867 42.56 39.48C41.8933 39.7467 41.3067 39.9733 40.8 40.16C40.2933 40.3467 39.9467 40.44 39.76 40.44C39.3867 40.44 38.8267 40.36 38.08 40.2C37.3333 40.04 36.5333 39.8267 35.68 39.56C34.8533 39.2933 34.0667 38.9867 33.32 38.64C32.6 38.2933 32.0667 37.9333 31.72 37.56C31.1867 36.9467 30.72 36.2667 30.32 35.52C29.92 34.7733 29.6267 33.8933 29.44 32.88C29.2533 31.84 29.16 30.6 29.16 29.16C29.16 27.2667 29.2667 25.64 29.48 24.28C29.72 22.92 30.0133 21.7867 30.36 20.88C30.7333 20.4 31.2533 19.88 31.92 19.32C32.6133 18.7333 33.3467 18.1867 34.12 17.68L35.6 18.8ZM37.2 36.2V18.16C37.2 17.8933 37.28 17.5067 37.44 17C37.6267 16.4933 37.8267 15.9333 38.04 15.32L39.32 15.36V33.92C39.32 34.08 39.2267 34.36 39.04 34.76C38.88 35.16 38.6533 35.64 38.36 36.2H37.2ZM46.84 23.64H44.04L43.48 19.12C43.1067 18.9867 42.6133 18.88 42 18.8C41.4133 18.6933 40.8267 18.6133 40.24 18.56C39.6533 18.5067 39.1467 18.48 38.72 18.48C38.5067 18.48 38.2933 18.4933 38.08 18.52C37.8933 18.52 37.72 18.5333 37.56 18.56L38.04 15.32C38.1733 15.2933 38.2933 15.2667 38.4 15.24C38.5067 15.2133 38.6267 15.2 38.76 15.2C39.16 15.2 39.68 15.2267 40.32 15.28C40.9867 15.3067 41.7067 15.3467 42.48 15.4C43.28 15.4533 44.0933 15.52 44.92 15.6C45.7467 15.68 46.56 15.7733 47.36 15.88L46.84 23.64Z" fill="#757070"/>
</g>
<rect x="1" y="1" width="55" height="51" rx="9" stroke="#FCB900" stroke-width="2"/>
<defs>
<clipPath id="clip0_507_51">
<rect width="57" height="53" rx="10" fill="white"/>
</clipPath>
</defs>
</svg>
