<?xml version="1.0" encoding="utf-8"?>
<!-- Generator: Adobe Illustrator 24.3.0, SVG Export Plug-In . SVG Version: 6.00 Build 0)  -->
<svg version="1.1" id="Layer_1" xmlns="http://www.w3.org/2000/svg" xmlns:xlink="http://www.w3.org/1999/xlink" x="0px" y="0px"
	 viewBox="0 0 1080 1080" style="enable-background:new 0 0 1080 1080;" xml:space="preserve">
<style type="text/css">
	.st0{fill:#186D43;}
	.st1{font-family:'Baloo';}
	.st2{font-size:152.4215px;}
	.st3{fill:#683C11;}
	.st4{font-size:59.6161px;}
	.st5{fill:#81BC1B;}
</style>
<g>
	<g>
		<text transform="matrix(0.9708 0 0 1 263.377 772.3281)" class="st0 st1 st2">All Agric</text>
		<text transform="matrix(0.9708 0 0 1 632.7393 816.9453)" class="st3 st1 st4">GH</text>
	</g>
	<g>
		<path class="st5" d="M593.36,334.73c-14.63,5.53-27.01,14.13-36.73,26.28c-13.66,17.08-20.52,36.59-20.22,58.54
			c0.1,7.56,0.25,15.14,0.01,22.69c-0.11,3.61,1.14,4.37,4.52,4.16c28.19-1.75,56.39-1.92,84.61-0.61
			c16.71,0.78,33.38,1.95,50.02,3.77c2.86,0.31,4.1,1.1,3.82,4.19c-0.3,3.32-0.37,6.72-0.01,10.02c0.42,3.77-1.28,4.57-4.6,4.86
			c-19.54,1.69-38.95,4.46-58.25,7.95c-31.08,5.62-61.72,13.04-91.81,22.66c-39.31,12.57-77.3,28.29-113.25,48.66
			c-3.37,1.91-4.25,0.91-5.55-2c-9.67-21.56-12.9-44.23-12.22-67.66c0.08-2.83,1.83-3.28,3.72-3.98
			c17.77-6.51,35.92-11.71,54.39-15.79c22.61-4.99,45.46-8.44,68.52-10.37c3.14-0.26,3.46-1.83,3.58-4.18
			c0.62-11.62,0.96-23.26,1.97-34.85c3.27-37.72,20.31-66.77,54.33-84.83c18.01-9.56,37.39-14.29,57.62-15.82
			c5.28-0.4,5.34-0.3,4.92,5.28c-1.67,22.47-7.51,43.57-21.32,61.78c-15.68,20.67-37.25,31.43-62.34,35.87
			c-3.28,0.58-6.66,0.68-9.93,1.29c-2.96,0.55-3.57-0.37-2.98-3.18c3.24-15.25,9.03-29.41,17.53-42.48
			C571.8,354.59,581.91,344.07,593.36,334.73z"/>
		<path class="st3" d="M679.39,490.19c-0.37,4.78,0.57,10.25-1.47,14.16c-2.18,4.15-8.39,3.52-12.85,4.85
			c-39.3,11.73-76.65,28.02-112.62,47.59c-29,15.78-56.85,33.44-83.85,52.43c-2.7,1.9-4.52,1.96-7.27,0.26
			c-18.14-11.2-32.7-25.95-44.49-43.62c-1.76-2.64-1.49-3.81,1.26-5.15c4.3-2.1,8.46-4.52,12.68-6.79
			c51.11-27.5,105.71-45.24,162.15-57.77c26.69-5.92,53.65-10.29,80.88-12.85c5.46-0.51,5.46-0.56,5.46,5.12c0,0.58,0,1.16,0,1.74
			C679.3,490.18,679.34,490.18,679.39,490.19z"/>
		<path class="st3" d="M480.38,618.45c8.04-5.4,16.12-10.98,24.37-16.32c48.55-31.45,99.46-58.13,154.75-75.85
			c4.01-1.29,8.13-2.27,12.09-3.7c3.5-1.26,3.56-0.04,2.75,2.86c-8.15,29.16-23.41,53.98-47.18,72.69
			c-43.79,34.47-92.21,41.63-144.49,22.12C481.91,619.96,480.88,619.99,480.38,618.45z"/>
		<path class="st0" d="M515.33,400.43c-10.92-24.07-24.96-45.23-50.83-55.41c17.33,20.05,33.37,41,47.54,64.23
			c-24.14-0.09-43.82-8.23-58.83-26.48c-13-15.8-19.77-34.34-22.99-54.33c-0.24-1.47-0.71-2.9,1.72-2.94
			c18.97-0.31,37.57,1.37,54.36,11.24c20.3,11.94,28.67,30.79,30.01,53.45c0.2,3.29,0.03,6.61,0.03,9.91
			C516.01,400.22,515.67,400.33,515.33,400.43z"/>
		<path class="st0" d="M515.31,286.23c10.71,19.39,14.52,40.13,18.05,61.8c-8.97-2.96-16.19-7.28-22.26-13.44
			c-12.66-12.85-17.02-29.07-18.3-46.4c-0.76-10.33,0.11-20.61,1.71-30.84c0.49-3.12,1.52-3.39,4.16-1.94
			c12.86,7.03,24.34,15.95,34.45,26.45c6.54,6.79,9.23,15.47,9.39,25.02c0.16,9.6,0.52,19.18-0.82,28.72
			c-0.16,1.13,0.4,3.2-1.25,3.21c-2.11,0.01-1.29-2.25-1.51-3.48c-2.81-15.87-7-31.2-17.07-44.26
			C519.39,287.9,519.38,287.91,515.31,286.23z"/>
	</g>
</g>
</svg>
